<svg xmlns="http://www.w3.org/2000/svg" xmlns:xlink="http://www.w3.org/1999/xlink" version="1.1" width="256" height="256" viewBox="0 0 256 256" xml:space="preserve">
<g style="stroke: none; stroke-width: 0; stroke-dasharray: none; stroke-linecap: butt; stroke-linejoin: miter; stroke-miterlimit: 10; fill: none; fill-rule: nonzero; opacity: 1;" transform="translate(1.4065934065934016 1.4065934065934016) scale(2.81 2.81)" >
	<path d="M 6.462 32.402 c -0.023 -0.35 -0.039 -0.702 -0.039 -1.057 c 0 -8.67 7.028 -15.698 15.698 -15.698 c 6.272 0 11.683 3.679 14.197 8.996 c 1.894 -1.344 4.202 -2.143 6.701 -2.143 c 5.782 0 10.562 4.236 11.441 9.771 c 3.981 1.089 6.911 4.723 6.911 9.05 c 0 5.187 -4.205 9.392 -9.392 9.392 H 9.392 C 4.205 50.714 0 46.509 0 41.322 C 0 37.159 2.711 33.634 6.462 32.402 z" style="stroke: none; stroke-width: 1; stroke-dasharray: none; stroke-linecap: butt; stroke-linejoin: miter; stroke-miterlimit: 10; fill: rgb(88,155,211); fill-rule: nonzero; opacity: 1;" transform=" matrix(1 0 0 1 0 0) " stroke-linecap="round" />
	<circle cx="59.019000000000005" cy="42.359" r="18.169" style="stroke: none; stroke-width: 1; stroke-dasharray: none; stroke-linecap: butt; stroke-linejoin: miter; stroke-miterlimit: 10; fill: rgb(249,193,0); fill-rule: nonzero; opacity: 1;" transform="  matrix(1 0 0 1 0 0) "/>
	<path d="M 59.02 19.564 c -0.559 0 -1.011 -0.453 -1.011 -1.011 v -6.166 c 0 -0.558 0.452 -1.011 1.011 -1.011 s 1.011 0.453 1.011 1.011 v 6.166 C 60.031 19.111 59.579 19.564 59.02 19.564 z" style="stroke: none; stroke-width: 1; stroke-dasharray: none; stroke-linecap: butt; stroke-linejoin: miter; stroke-miterlimit: 10; fill: rgb(249,193,0); fill-rule: nonzero; opacity: 1;" transform=" matrix(1 0 0 1 0 0) " stroke-linecap="round" />
	<path d="M 88.989 43.367 h -6.166 c -0.559 0 -1.011 -0.453 -1.011 -1.011 c 0 -0.558 0.452 -1.011 1.011 -1.011 h 6.166 c 0.559 0 1.011 0.453 1.011 1.011 C 90 42.914 89.548 43.367 88.989 43.367 z" style="stroke: none; stroke-width: 1; stroke-dasharray: none; stroke-linecap: butt; stroke-linejoin: miter; stroke-miterlimit: 10; fill: rgb(249,193,0); fill-rule: nonzero; opacity: 1;" transform=" matrix(1 0 0 1 0 0) " stroke-linecap="round" />
	<path d="M 75.852 26.536 c -0.259 0 -0.517 -0.099 -0.715 -0.296 c -0.395 -0.395 -0.395 -1.035 0 -1.43 l 4.36 -4.36 c 0.395 -0.395 1.035 -0.395 1.43 0 s 0.395 1.035 0 1.43 l -4.36 4.36 C 76.369 26.437 76.11 26.536 75.852 26.536 z" style="stroke: none; stroke-width: 1; stroke-dasharray: none; stroke-linecap: butt; stroke-linejoin: miter; stroke-miterlimit: 10; fill: rgb(249,193,0); fill-rule: nonzero; opacity: 1;" transform=" matrix(1 0 0 1 0 0) " stroke-linecap="round" />
	<path d="M 13.97 55.13 c -0.03 -0.449 -0.051 -0.9 -0.051 -1.356 c 0 -11.123 9.017 -20.14 20.14 -20.14 c 8.047 0 14.989 4.721 18.215 11.542 c 2.429 -1.725 5.391 -2.749 8.598 -2.749 c 7.419 0 13.551 5.434 14.679 12.536 c 5.108 1.398 8.867 6.06 8.867 11.611 c 0 6.655 -5.395 12.05 -12.05 12.05 H 17.73 c -6.655 0 -12.05 -5.395 -12.05 -12.05 C 5.68 61.233 9.158 56.711 13.97 55.13 z" style="stroke: none; stroke-width: 1; stroke-dasharray: none; stroke-linecap: butt; stroke-linejoin: miter; stroke-miterlimit: 10; fill: rgb(98,195,247); fill-rule: nonzero; opacity: 1;" transform=" matrix(1 0 0 1 0 0) " stroke-linecap="round" />
</g>
</svg>